<?xml version="1.0" encoding="utf-8"?>
<!-- Generator: Adobe Illustrator 25.0.1, SVG Export Plug-In . SVG Version: 6.00 Build 0)  -->
<svg version="1.1" xmlns="http://www.w3.org/2000/svg" xmlns:xlink="http://www.w3.org/1999/xlink" x="0px" y="0px" width="750px"
	 height="750px" viewBox="0 0 750 750" style="enable-background:new 0 0 750 750;" xml:space="preserve">
  <style type="text/css">
	.st0{fill:#FFFFFF;}
	.st1{fill:none;stroke:#013162;stroke-width:2;stroke-linecap:round;stroke-linejoin:round;stroke-miterlimit:10;}
	.st2{fill:#013162;}
	.st3{opacity:0.98;}
	.st4{fill:none;stroke:#013162;stroke-width:2.5;stroke-linecap:round;stroke-linejoin:round;}
	.st5{fill:none;stroke:#013162;stroke-width:2.5;stroke-linecap:round;stroke-linejoin:round;stroke-dasharray:3.0856,6.1712;}
	.st6{fill:none;stroke:#013162;stroke-width:2.5;stroke-linecap:round;stroke-linejoin:round;stroke-dasharray:3.0872,6.1744;}
	.st7{fill:none;stroke:#013162;stroke-width:2.5;stroke-linecap:round;stroke-linejoin:round;stroke-dasharray:2.9032,5.8063;}
	.st8{fill:none;stroke:#013162;stroke-width:2.5;stroke-linecap:round;stroke-linejoin:round;stroke-dasharray:4.0168,6.0252;}
	.st9{fill:none;stroke:#013162;stroke-width:2.5;stroke-linecap:round;stroke-linejoin:round;stroke-dasharray:3.9965,5.9947;}
	.st10{fill:none;stroke:#013162;stroke-width:2.5;stroke-linecap:round;stroke-linejoin:round;stroke-dasharray:3.9968,5.9952;}
	.st11{fill:none;stroke:#013162;stroke-width:2.5;stroke-linecap:round;stroke-linejoin:round;stroke-dasharray:4.0217,6.0326;}
	.st12{fill:none;stroke:#013162;stroke-width:2.5;stroke-linecap:round;stroke-linejoin:round;stroke-dasharray:3.9979,5.9968;}
	.st13{fill:none;stroke:#013162;stroke-width:2.5;stroke-linecap:round;stroke-linejoin:round;stroke-dasharray:4.0092,6.0137;}
	.st14{fill:none;stroke:#013162;stroke-width:2.5;stroke-linecap:round;stroke-linejoin:round;stroke-dasharray:4.0206,6.031;}
	.st15{fill:none;stroke:#013162;stroke-width:3.25;stroke-linecap:round;stroke-linejoin:round;}
	.st16{fill:none;stroke:#013162;stroke-width:3.25;stroke-linecap:round;stroke-linejoin:round;stroke-dasharray:4.023,7.0402;}
	.st17{fill:none;stroke:#013162;stroke-width:3.25;stroke-linecap:round;stroke-linejoin:round;stroke-dasharray:3.8935,6.8136;}
	.st18{fill:none;stroke:#013162;stroke-width:3.25;stroke-linecap:round;stroke-linejoin:round;stroke-dasharray:3.9362,6.8884;}
	.st19{fill:none;stroke:#013162;stroke-width:3.25;stroke-linecap:round;stroke-linejoin:round;stroke-dasharray:4.0552,7.0965;}
	.st20{fill:none;stroke:#013162;stroke-width:3.25;stroke-linecap:round;stroke-linejoin:round;stroke-dasharray:4.0227,7.0397;}
	.st21{fill:none;stroke:#013162;stroke-width:3.25;stroke-linecap:round;stroke-linejoin:round;stroke-dasharray:3.9887,6.9802;}
	.st22{fill:none;stroke:#013162;stroke-width:3.25;stroke-linecap:round;stroke-linejoin:round;stroke-dasharray:4.0325,7.0569;}
	.st23{fill:none;stroke:#013162;stroke-width:3.25;stroke-linecap:round;stroke-linejoin:round;stroke-dasharray:3.9827,6.9698;}
	.st24{fill:none;stroke:#013162;stroke-width:3.25;stroke-linecap:round;stroke-linejoin:round;stroke-dasharray:3.9806,6.966;}
	.st25{fill:none;stroke:#013162;stroke-width:3.25;stroke-linecap:round;stroke-linejoin:round;stroke-dasharray:3.9259,6.8703;}
	.st26{fill:none;stroke:#013162;stroke-width:3.25;stroke-linecap:round;stroke-linejoin:round;stroke-dasharray:3.9678,6.9436;}
	.st27{fill:none;stroke:#013162;stroke-width:3.25;stroke-linecap:round;stroke-linejoin:round;stroke-dasharray:3.9822,6.9688;}
	.st28{fill:none;stroke:#013162;stroke-width:3.25;stroke-linecap:round;stroke-linejoin:round;stroke-dasharray:4.0392,7.0686;}
	.st29{fill:none;stroke:#013162;stroke-width:2.5;stroke-linecap:round;stroke-linejoin:round;stroke-dasharray:2.9844,4.974;}
	.st30{fill:none;stroke:#013162;stroke-width:2.5;stroke-linecap:round;stroke-linejoin:round;stroke-dasharray:2.9897,4.9829;}
	.st31{fill:none;stroke:#013162;stroke-width:2.5;stroke-linecap:round;stroke-linejoin:round;stroke-dasharray:1.5376,2.5627;}
	.st32{fill:none;stroke:#013162;stroke-width:2.5;stroke-linecap:round;stroke-linejoin:round;stroke-dasharray:2.8563,4.7604;}
	.st33{fill:none;stroke:#013162;stroke-width:2.5;stroke-linecap:round;stroke-linejoin:round;stroke-dasharray:2.8116,4.6861;}
	.st34{fill:none;stroke:#013162;stroke-width:2.5;stroke-linecap:round;stroke-linejoin:round;stroke-dasharray:3.0052,5.0087;}
	.st35{fill:none;stroke:#013162;stroke-width:2.5;stroke-linecap:round;stroke-linejoin:round;stroke-dasharray:3.0144,5.024;}
	.st36{fill:none;stroke:#013162;stroke-width:2.5;stroke-linecap:round;stroke-linejoin:round;stroke-dasharray:2.9901,4.9836;}
	.st37{fill:none;stroke:#013162;stroke-width:2.5;stroke-linecap:round;stroke-linejoin:round;stroke-dasharray:2.99,4.9834;}
	.st38{fill:none;stroke:#013162;stroke-width:2.5;stroke-linecap:round;stroke-linejoin:round;stroke-dasharray:2.9745,4.9575;}
	.st39{fill:none;stroke:#013162;stroke-width:2.5;stroke-linecap:round;stroke-linejoin:round;stroke-dasharray:1.5264,2.544;}
	.st40{fill:none;stroke:#013162;stroke-width:2.5;stroke-linecap:round;stroke-linejoin:round;stroke-dasharray:2.8398,4.733;}
	.st41{fill:none;stroke:#013162;stroke-width:2.5;stroke-linecap:round;stroke-linejoin:round;stroke-dasharray:2.7963,4.6605;}
	.st42{fill:none;stroke:#013162;stroke-width:2.5;stroke-linecap:round;stroke-linejoin:round;stroke-dasharray:3.0147,5.0245;}
	.st43{fill:none;stroke:#013162;stroke-width:2.5;stroke-linecap:round;stroke-linejoin:round;stroke-dasharray:2.9903,4.9838;}
	.st44{fill:none;stroke:#013162;stroke-width:2.5;stroke-linecap:round;stroke-linejoin:round;stroke-dasharray:2.9904,4.984;}
	.st45{fill:none;stroke:#013162;stroke-width:2.5;stroke-linecap:round;stroke-linejoin:round;stroke-dasharray:2.9697,4.9494;}
	.st46{fill:none;stroke:#013162;stroke-width:2.5;stroke-linecap:round;stroke-linejoin:round;stroke-dasharray:2.9697,4.9495;}
	.st47{fill:none;stroke:#013162;stroke-width:2.5;stroke-linecap:round;stroke-linejoin:round;stroke-dasharray:3.0296,5.0494;}
	.st48{fill:none;stroke:#013162;stroke-width:2.5;stroke-linecap:round;stroke-linejoin:round;stroke-dasharray:4.011,6.0166;}
	.st49{fill:none;stroke:#013162;stroke-width:2.5;stroke-linecap:round;stroke-linejoin:round;stroke-dasharray:4.0213,6.0319;}
	.st50{fill:none;stroke:#013162;stroke-width:2.5;stroke-linecap:round;stroke-linejoin:round;stroke-dasharray:4.0083,6.0125;}
	.st51{fill:none;stroke:#013162;stroke-width:2.5;stroke-linecap:round;stroke-linejoin:round;stroke-dasharray:3.4946,5.2419;}
	.st52{fill:none;stroke:#013162;stroke-width:2.5;stroke-linecap:round;stroke-linejoin:round;stroke-dasharray:2.2704,3.4056;}
	.st53{fill:none;stroke:#013162;stroke-width:2.5;stroke-linecap:round;stroke-linejoin:round;stroke-dasharray:3.9456,5.9184;}
	.st54{fill:none;stroke:#013162;stroke-width:2.5;stroke-linecap:round;stroke-linejoin:round;stroke-dasharray:3.9857,5.9786;}
	.st55{fill:none;stroke:#013162;stroke-width:2.5;stroke-linecap:round;stroke-linejoin:round;stroke-dasharray:3.9942,5.9913;}
	.st56{fill:none;stroke:#013162;stroke-width:2.5;stroke-linecap:round;stroke-linejoin:round;stroke-dasharray:4.0209,6.0313;}
	.st57{fill:none;stroke:#013162;stroke-width:2.5;stroke-linecap:round;stroke-linejoin:round;stroke-dasharray:4.0245,6.0367;}
	.st58{fill:none;stroke:#013162;stroke-width:2.5;stroke-linecap:round;stroke-linejoin:round;stroke-dasharray:3.6611,5.4916;}
	.st59{fill:none;stroke:#013162;stroke-width:2.5;stroke-linecap:round;stroke-linejoin:round;stroke-dasharray:2.4029,3.6044;}
	.st60{fill:none;stroke:#013162;stroke-width:2.5;stroke-linecap:round;stroke-linejoin:round;stroke-dasharray:4.1095,6.1643;}
	.st61{fill:none;stroke:#013162;stroke-width:2.5;stroke-linecap:round;stroke-linejoin:round;stroke-dasharray:4.0068,6.0101;}
	.st62{fill:none;stroke:#013162;stroke-width:2.5;stroke-linecap:round;stroke-linejoin:round;stroke-dasharray:3.9849,5.9774;}
	.st63{fill:none;stroke:#013162;stroke-width:2.5;stroke-linecap:round;stroke-linejoin:round;stroke-dasharray:3.9981,5.9972;}
	.st64{fill:none;stroke:#013162;stroke-width:2.5;stroke-linecap:round;stroke-linejoin:round;stroke-dasharray:4.0053,6.0079;}
	.st65{fill:none;stroke:#013162;stroke-width:2.5;stroke-linecap:round;stroke-linejoin:round;stroke-dasharray:3.9953,5.993;}
	.st66{fill:none;stroke:#013162;stroke-width:2.5;stroke-linecap:round;stroke-linejoin:round;stroke-dasharray:3.4813,5.222;}
	.st67{fill:none;stroke:#013162;stroke-width:2.5;stroke-linecap:round;stroke-linejoin:round;stroke-dasharray:2.2599,3.3898;}
	.st68{fill:none;stroke:#013162;stroke-width:2.5;stroke-linecap:round;stroke-linejoin:round;stroke-dasharray:3.9328,5.8992;}
	.st69{fill:none;stroke:#013162;stroke-width:2.5;stroke-linecap:round;stroke-linejoin:round;stroke-dasharray:3.9611,5.9416;}
	.st70{fill:none;stroke:#013162;stroke-width:2.5;stroke-linecap:round;stroke-linejoin:round;stroke-dasharray:3.9202,5.8803;}
	.st71{fill:none;stroke:#013162;stroke-width:2.5;stroke-linecap:round;stroke-linejoin:round;stroke-dasharray:3.9615,5.9423;}
	.st72{fill:none;stroke:#013162;stroke-width:2.35;stroke-linecap:round;stroke-linejoin:round;stroke-miterlimit:10;}
	.st73{fill:none;stroke:#013162;stroke-width:2.75;stroke-linecap:round;stroke-linejoin:round;stroke-miterlimit:10;}
	.st74{fill:none;stroke:#013162;stroke-width:2.25;stroke-linecap:round;stroke-linejoin:round;stroke-miterlimit:10;}
	.st75{fill:none;stroke:#013162;stroke-width:2.5;stroke-linecap:round;stroke-linejoin:round;stroke-miterlimit:10;}
	.st76{fill:none;stroke:#013162;stroke-width:3;stroke-linecap:round;stroke-linejoin:round;stroke-miterlimit:10;}
	.st77{fill:none;stroke:#013162;stroke-width:3.5;stroke-linecap:round;stroke-linejoin:round;stroke-miterlimit:10;}
</style>
  <g id="FILL-BACKGROUND">
    <rect x="0" class="st0" width="750" height="750"/>
  </g>
  <g id="N-DIMENSIONS">
</g>
  <g id="N-TEXT">
</g>
  <g id="_x32_D_x24_AG-DIAGRAM">
    <g id="POLYLINE_100_">
      <g>
        <g>
          <line class="st15" x1="220.13" y1="629.84" x2="222.13" y2="629.84"/>
          <line class="st16" x1="229.17" y1="629.84" x2="524.35" y2="629.84"/>
          <line class="st15" x1="527.87" y1="629.84" x2="529.87" y2="629.84"/>
        </g>
      </g>
    </g>
  </g>
  <g id="_x32_D_x24_AG-DETAILS-DIAGRAM">
</g>
  <g id="_x32_D_x24_AG-DETAILS">
</g>
  <g id="_x32_D_x24_AG-SPORTS">
    <g id="POLYLINE_771_">
      <line class="st73" x1="407.88" y1="282.09" x2="342.12" y2="282.09"/>
    </g>
    <g id="POLYLINE_770_">
      <line class="st73" x1="342.21" y1="267.1" x2="407.79" y2="267.1"/>
    </g>
    <g id="POLYLINE_769_">
      <line class="st73" x1="408.15" y1="254.75" x2="341.85" y2="254.75"/>
    </g>
    <g id="POLYLINE_768_">
      <line class="st73" x1="340.92" y1="239.77" x2="409.08" y2="239.77"/>
    </g>
    <g id="POLYLINE_767_">
      <path class="st73" d="M293.03,548.29c2.43,7.12,5.73,14,9.48,20.52c9.57,16.82,27.27,42.71,38.09,59.14
			c0.4,0.58,0.87,1.01,1.44,1.33c0.38,0.22,0.8,0.37,1.23,0.46c0.19,0.04,0.39,0.07,0.58,0.08c0.16,0.08,61.78-0.04,62,0.01
			c0.73,0,1.47-0.19,2.11-0.55c0.58-0.32,1.1-0.82,1.44-1.33c10.87-16.51,28.45-42.21,38.09-59.14c3.74-6.52,7.05-13.4,9.48-20.52"
			/>
    </g>
    <g id="POLYLINE_766_">
      <path class="st73" d="M463.45,507.51c0.21-9.58-0.28-19.51-1.12-29.05c-0.98-11.03-2.53-22.34-4.68-33.2
			c-2.74-14.14-7-28.22-12.09-41.68c-7.72-20.62-21.13-49.58-28.54-70.29c-1.77-4.94-3.49-10.25-4.77-15.34
			c-1.61-6.31-2.69-12.85-3.35-19.33c-1.58-16.17-1.32-32.85-0.48-49.07c0.79-17.17,4.89-46.71,6.97-63.99
			c1.15-10.87,1.92-22.08-0.36-32.86c-2.14-10.16-7.24-19.89-15.96-25.85c-7-4.86-15.64-6.73-24.06-6.71
			c-8.42-0.03-17.06,1.85-24.06,6.71c-8.72,5.96-13.82,15.69-15.96,25.85c-2.28,10.77-1.52,21.99-0.36,32.86
			c2.12,17.51,6.17,46.8,6.97,63.99c0.84,16.23,1.09,32.89-0.48,49.07c-0.66,6.48-1.74,13.01-3.35,19.33
			c-1.29,5.1-3,10.39-4.77,15.34c-7.41,20.7-20.82,49.67-28.54,70.29c-5.1,13.46-9.35,27.54-12.09,41.68
			c-2.15,10.87-3.7,22.17-4.68,33.2c-0.84,9.54-1.34,19.47-1.12,29.05"/>
    </g>
    <g id="POLYLINE_363_">
      <rect x="273.06" y="507.51" class="st73" width="203.88" height="40.78"/>
    </g>
  </g>
  <g id="_x32_D_x24_AG-OUTLINE">
    <g id="POLYLINE_84_">
      <path class="st77" d="M463.45,507.51c0.25-11.69-0.5-23.66-1.73-35.28c-1.61-14.94-4.22-30.05-8.21-44.55
			c-8.46-30.8-25.67-64.34-36.49-94.39c-3-8.31-5.53-16.96-6.93-25.69c-1.77-10.77-2.23-21.98-2.33-32.88
			c-0.09-15.67,0.83-31.99,2.53-47.57l5.1-41.59c1.15-10.87,1.92-22.08-0.36-32.86c-2.14-10.16-7.24-19.89-15.96-25.85
			c-7-4.86-15.64-6.73-24.06-6.71c-8.42-0.03-17.06,1.85-24.06,6.71c-8.72,5.96-13.82,15.69-15.96,25.85
			c-2.28,10.77-1.52,21.99-0.36,32.86l5.1,41.59c1.7,15.59,2.62,31.89,2.53,47.57c-0.1,10.91-0.56,22.11-2.33,32.88
			c-1.41,8.73-3.93,17.38-6.93,25.69c-10.82,30.07-28.02,63.56-36.49,94.39c-3.99,14.5-6.6,29.61-8.21,44.55
			c-1.23,11.62-1.99,23.59-1.73,35.28c0,0-13.49,0-13.49,0v40.78h19.97c1.28,3.68,2.78,7.41,4.44,10.93
			c2.03,4.33,4.6,8.88,7.02,13.02c8.87,15.15,26.31,40.88,36.18,55.81c0.43,0.62,1.03,1.07,1.64,1.37c0.44,0.21,0.91,0.34,1.39,0.39
			c0.15,0.01,0.3,0.02,0.44,0.02c0,0,61.71,0,61.71,0c0.63,0,1.26-0.14,1.83-0.41c0.66-0.3,1.21-0.79,1.61-1.32
			c9.97-15.08,27.24-40.56,36.22-55.87c2.4-4.14,5-8.69,7.02-13.02c1.66-3.51,3.17-7.26,4.44-10.93h19.97c0,0,0-40.78,0-40.78
			H463.45z"/>
    </g>
  </g>
</svg>